<mxfile host="Electron" agent="Mozilla/5.0 (Windows NT 10.0; Win64; x64) AppleWebKit/537.36 (KHTML, like Gecko) draw.io/28.0.6 Chrome/138.0.7204.100 Electron/37.2.3 Safari/537.36" version="28.0.6">
  <diagram name="Page-1" id="uJfGo67KQBnwjLmrFCQG">
    <mxGraphModel dx="769" dy="661" grid="0" gridSize="10" guides="1" tooltips="1" connect="1" arrows="1" fold="1" page="0" pageScale="1" pageWidth="850" pageHeight="1100" math="0" shadow="0">
      <root>
        <mxCell id="0" />
        <mxCell id="1" parent="0" />
        <mxCell id="yjUT5shLF-KUIMgDuQY2-1" value="Mux" style="shadow=0;dashed=0;align=center;html=1;strokeWidth=1;shape=mxgraph.electrical.abstract.mux2;whiteSpace=wrap;" parent="1" vertex="1">
          <mxGeometry x="470" y="400" width="80" height="120" as="geometry" />
        </mxCell>
        <mxCell id="yjUT5shLF-KUIMgDuQY2-2" value="Mux" style="shadow=0;dashed=0;align=center;html=1;strokeWidth=1;shape=mxgraph.electrical.abstract.mux2;whiteSpace=wrap;" parent="1" vertex="1">
          <mxGeometry x="310" y="350" width="80" height="120" as="geometry" />
        </mxCell>
        <mxCell id="yjUT5shLF-KUIMgDuQY2-3" value="Mux" style="shadow=0;dashed=0;align=center;html=1;strokeWidth=1;shape=mxgraph.electrical.abstract.mux2;whiteSpace=wrap;" parent="1" vertex="1">
          <mxGeometry x="150" y="280" width="80" height="120" as="geometry" />
        </mxCell>
        <mxCell id="yjUT5shLF-KUIMgDuQY2-7" style="edgeStyle=orthogonalEdgeStyle;rounded=0;orthogonalLoop=1;jettySize=auto;html=1;exitX=1;exitY=0.5;exitDx=0;exitDy=-5;exitPerimeter=0;entryX=0;entryY=0.21666666666666667;entryDx=0;entryDy=3;entryPerimeter=0;" parent="1" source="yjUT5shLF-KUIMgDuQY2-2" target="yjUT5shLF-KUIMgDuQY2-1" edge="1">
          <mxGeometry relative="1" as="geometry" />
        </mxCell>
        <mxCell id="Av6H_b5IpjaGuoief6s5-2" style="edgeStyle=orthogonalEdgeStyle;rounded=0;orthogonalLoop=1;jettySize=auto;html=1;exitX=1;exitY=0.25;exitDx=0;exitDy=0;exitPerimeter=0;" parent="1" source="yjUT5shLF-KUIMgDuQY2-8" edge="1">
          <mxGeometry relative="1" as="geometry">
            <mxPoint x="700.9607938878678" y="412.6470588235295" as="targetPoint" />
          </mxGeometry>
        </mxCell>
        <mxCell id="yjUT5shLF-KUIMgDuQY2-8" value="" style="verticalLabelPosition=bottom;shadow=0;dashed=0;align=center;html=1;verticalAlign=top;shape=mxgraph.electrical.logic_gates.d_type_flip-flop;" parent="1" vertex="1">
          <mxGeometry x="590" y="380" width="70" height="130" as="geometry" />
        </mxCell>
        <mxCell id="yjUT5shLF-KUIMgDuQY2-9" style="edgeStyle=orthogonalEdgeStyle;rounded=0;orthogonalLoop=1;jettySize=auto;html=1;exitX=1;exitY=0.5;exitDx=0;exitDy=-5;exitPerimeter=0;entryX=0;entryY=0.25;entryDx=0;entryDy=0;entryPerimeter=0;" parent="1" source="yjUT5shLF-KUIMgDuQY2-1" target="yjUT5shLF-KUIMgDuQY2-8" edge="1">
          <mxGeometry relative="1" as="geometry" />
        </mxCell>
        <mxCell id="yjUT5shLF-KUIMgDuQY2-15" value="" style="rounded=0;whiteSpace=wrap;html=1;" parent="1" vertex="1">
          <mxGeometry x="240" y="400" width="30" height="60" as="geometry" />
        </mxCell>
        <mxCell id="yjUT5shLF-KUIMgDuQY2-16" style="edgeStyle=orthogonalEdgeStyle;rounded=0;orthogonalLoop=1;jettySize=auto;html=1;entryX=0;entryY=0.65;entryDx=0;entryDy=3;entryPerimeter=0;" parent="1" source="yjUT5shLF-KUIMgDuQY2-15" target="yjUT5shLF-KUIMgDuQY2-2" edge="1">
          <mxGeometry relative="1" as="geometry" />
        </mxCell>
        <mxCell id="yjUT5shLF-KUIMgDuQY2-17" value="" style="rounded=0;whiteSpace=wrap;html=1;" parent="1" vertex="1">
          <mxGeometry x="80" y="330" width="30" height="60" as="geometry" />
        </mxCell>
        <mxCell id="yjUT5shLF-KUIMgDuQY2-18" style="edgeStyle=orthogonalEdgeStyle;rounded=0;orthogonalLoop=1;jettySize=auto;html=1;entryX=0;entryY=0.65;entryDx=0;entryDy=3;entryPerimeter=0;" parent="1" source="yjUT5shLF-KUIMgDuQY2-17" target="yjUT5shLF-KUIMgDuQY2-3" edge="1">
          <mxGeometry relative="1" as="geometry" />
        </mxCell>
        <mxCell id="yjUT5shLF-KUIMgDuQY2-19" style="edgeStyle=orthogonalEdgeStyle;rounded=0;orthogonalLoop=1;jettySize=auto;html=1;exitX=1;exitY=0.5;exitDx=0;exitDy=-5;exitPerimeter=0;entryX=0;entryY=0.21666666666666667;entryDx=0;entryDy=3;entryPerimeter=0;" parent="1" source="yjUT5shLF-KUIMgDuQY2-3" target="yjUT5shLF-KUIMgDuQY2-2" edge="1">
          <mxGeometry relative="1" as="geometry" />
        </mxCell>
        <mxCell id="yjUT5shLF-KUIMgDuQY2-20" value="" style="endArrow=classic;html=1;rounded=0;entryX=0;entryY=0.5;entryDx=0;entryDy=0;" parent="1" edge="1">
          <mxGeometry width="50" height="50" relative="1" as="geometry">
            <mxPoint x="699" y="413" as="sourcePoint" />
            <mxPoint x="240" y="440.0000000000001" as="targetPoint" />
            <Array as="points">
              <mxPoint x="699" y="598" />
              <mxPoint x="220" y="600" />
              <mxPoint x="220" y="440" />
            </Array>
          </mxGeometry>
        </mxCell>
        <mxCell id="yjUT5shLF-KUIMgDuQY2-21" value="" style="endArrow=classic;html=1;rounded=0;entryX=0;entryY=0.5;entryDx=0;entryDy=0;" parent="1" target="yjUT5shLF-KUIMgDuQY2-17" edge="1">
          <mxGeometry width="50" height="50" relative="1" as="geometry">
            <mxPoint x="220" y="600" as="sourcePoint" />
            <mxPoint x="80" y="340" as="targetPoint" />
            <Array as="points">
              <mxPoint x="130" y="600" />
              <mxPoint x="90" y="600" />
              <mxPoint x="50" y="600" />
              <mxPoint x="50" y="590" />
              <mxPoint x="50" y="360" />
              <mxPoint x="60" y="360" />
            </Array>
          </mxGeometry>
        </mxCell>
        <mxCell id="yjUT5shLF-KUIMgDuQY2-22" value="-1" style="text;html=1;align=center;verticalAlign=middle;resizable=0;points=[];autosize=1;strokeColor=none;fillColor=none;" parent="1" vertex="1">
          <mxGeometry x="240" y="415" width="30" height="30" as="geometry" />
        </mxCell>
        <mxCell id="yjUT5shLF-KUIMgDuQY2-23" value="+1" style="text;html=1;align=center;verticalAlign=middle;resizable=0;points=[];autosize=1;strokeColor=none;fillColor=none;" parent="1" vertex="1">
          <mxGeometry x="75" y="350" width="40" height="30" as="geometry" />
        </mxCell>
        <mxCell id="yjUT5shLF-KUIMgDuQY2-24" value="load" style="text;html=1;align=center;verticalAlign=middle;resizable=0;points=[];autosize=1;strokeColor=none;fillColor=none;" parent="1" vertex="1">
          <mxGeometry x="485" y="520" width="50" height="30" as="geometry" />
        </mxCell>
        <mxCell id="yjUT5shLF-KUIMgDuQY2-26" value="" style="verticalLabelPosition=bottom;shadow=0;dashed=0;align=center;html=1;verticalAlign=top;shape=mxgraph.electrical.logic_gates.logic_gate;operation=and;rotation=-90;" parent="1" vertex="1">
          <mxGeometry x="335" y="500" width="30" height="20" as="geometry" />
        </mxCell>
        <mxCell id="yjUT5shLF-KUIMgDuQY2-27" value="" style="verticalLabelPosition=bottom;shadow=0;dashed=0;align=center;html=1;verticalAlign=top;shape=mxgraph.electrical.logic_gates.inverter_2;rotation=-90;" parent="1" vertex="1">
          <mxGeometry x="340" y="550" width="30" height="20" as="geometry" />
        </mxCell>
        <mxCell id="yjUT5shLF-KUIMgDuQY2-33" style="edgeStyle=orthogonalEdgeStyle;rounded=0;orthogonalLoop=1;jettySize=auto;html=1;entryX=0.167;entryY=0.75;entryDx=0;entryDy=0;entryPerimeter=0;" parent="1" source="yjUT5shLF-KUIMgDuQY2-27" target="yjUT5shLF-KUIMgDuQY2-26" edge="1">
          <mxGeometry relative="1" as="geometry" />
        </mxCell>
        <mxCell id="yjUT5shLF-KUIMgDuQY2-42" style="edgeStyle=orthogonalEdgeStyle;rounded=0;orthogonalLoop=1;jettySize=auto;html=1;exitX=1;exitY=0.5;exitDx=0;exitDy=0;exitPerimeter=0;" parent="1" source="yjUT5shLF-KUIMgDuQY2-35" edge="1">
          <mxGeometry relative="1" as="geometry">
            <mxPoint x="190" y="400" as="targetPoint" />
          </mxGeometry>
        </mxCell>
        <mxCell id="yjUT5shLF-KUIMgDuQY2-35" value="" style="verticalLabelPosition=bottom;shadow=0;dashed=0;align=center;html=1;verticalAlign=top;shape=mxgraph.electrical.logic_gates.logic_gate;operation=and;rotation=-90;" parent="1" vertex="1">
          <mxGeometry x="175" y="425" width="30" height="20" as="geometry" />
        </mxCell>
        <mxCell id="yjUT5shLF-KUIMgDuQY2-38" value="" style="verticalLabelPosition=bottom;shadow=0;dashed=0;align=center;html=1;verticalAlign=top;shape=mxgraph.electrical.logic_gates.logic_gate;operation=and;rotation=-90;" parent="1" vertex="1">
          <mxGeometry x="170" y="490" width="30" height="20" as="geometry" />
        </mxCell>
        <mxCell id="yjUT5shLF-KUIMgDuQY2-39" style="edgeStyle=orthogonalEdgeStyle;rounded=0;orthogonalLoop=1;jettySize=auto;html=1;exitX=1;exitY=0.5;exitDx=0;exitDy=0;exitPerimeter=0;entryX=0;entryY=0.75;entryDx=0;entryDy=0;entryPerimeter=0;" parent="1" source="yjUT5shLF-KUIMgDuQY2-38" target="yjUT5shLF-KUIMgDuQY2-35" edge="1">
          <mxGeometry relative="1" as="geometry" />
        </mxCell>
        <mxCell id="yjUT5shLF-KUIMgDuQY2-40" style="edgeStyle=orthogonalEdgeStyle;rounded=0;orthogonalLoop=1;jettySize=auto;html=1;exitX=1;exitY=0.5;exitDx=0;exitDy=0;exitPerimeter=0;entryX=0.375;entryY=1;entryDx=10;entryDy=0;entryPerimeter=0;" parent="1" source="yjUT5shLF-KUIMgDuQY2-26" target="yjUT5shLF-KUIMgDuQY2-2" edge="1">
          <mxGeometry relative="1" as="geometry" />
        </mxCell>
        <mxCell id="yjUT5shLF-KUIMgDuQY2-43" value="" style="verticalLabelPosition=bottom;shadow=0;dashed=0;align=center;html=1;verticalAlign=top;shape=mxgraph.electrical.logic_gates.inverter_2;rotation=-90;" parent="1" vertex="1">
          <mxGeometry x="140" y="540" width="30" height="20" as="geometry" />
        </mxCell>
        <mxCell id="yjUT5shLF-KUIMgDuQY2-44" value="" style="verticalLabelPosition=bottom;shadow=0;dashed=0;align=center;html=1;verticalAlign=top;shape=mxgraph.electrical.logic_gates.inverter_2;rotation=-90;" parent="1" vertex="1">
          <mxGeometry x="175" y="540" width="30" height="20" as="geometry" />
        </mxCell>
        <mxCell id="yjUT5shLF-KUIMgDuQY2-45" style="edgeStyle=orthogonalEdgeStyle;rounded=0;orthogonalLoop=1;jettySize=auto;html=1;entryX=0;entryY=0.75;entryDx=0;entryDy=0;entryPerimeter=0;" parent="1" source="yjUT5shLF-KUIMgDuQY2-44" target="yjUT5shLF-KUIMgDuQY2-38" edge="1">
          <mxGeometry relative="1" as="geometry" />
        </mxCell>
        <mxCell id="yjUT5shLF-KUIMgDuQY2-46" style="edgeStyle=orthogonalEdgeStyle;rounded=0;orthogonalLoop=1;jettySize=auto;html=1;entryX=0;entryY=0.25;entryDx=0;entryDy=0;entryPerimeter=0;exitX=1;exitY=0.5;exitDx=0;exitDy=0;exitPerimeter=0;" parent="1" source="yjUT5shLF-KUIMgDuQY2-43" target="yjUT5shLF-KUIMgDuQY2-38" edge="1">
          <mxGeometry relative="1" as="geometry">
            <Array as="points">
              <mxPoint x="150" y="535" />
              <mxPoint x="150" y="515" />
            </Array>
          </mxGeometry>
        </mxCell>
        <mxCell id="yjUT5shLF-KUIMgDuQY2-47" value="low" style="text;html=1;align=center;verticalAlign=middle;resizable=0;points=[];autosize=1;strokeColor=none;fillColor=none;" parent="1" vertex="1">
          <mxGeometry x="335" y="570" width="40" height="30" as="geometry" />
        </mxCell>
        <mxCell id="yjUT5shLF-KUIMgDuQY2-48" value="down" style="text;html=1;align=center;verticalAlign=middle;resizable=0;points=[];autosize=1;strokeColor=none;fillColor=none;" parent="1" vertex="1">
          <mxGeometry x="310" y="520" width="50" height="30" as="geometry" />
        </mxCell>
        <mxCell id="yjUT5shLF-KUIMgDuQY2-49" value="up" style="text;html=1;align=center;verticalAlign=middle;resizable=0;points=[];autosize=1;strokeColor=none;fillColor=none;" parent="1" vertex="1">
          <mxGeometry x="160" y="440" width="40" height="30" as="geometry" />
        </mxCell>
        <mxCell id="yjUT5shLF-KUIMgDuQY2-51" value="down" style="text;html=1;align=center;verticalAlign=middle;resizable=0;points=[];autosize=1;strokeColor=none;fillColor=none;" parent="1" vertex="1">
          <mxGeometry x="120" y="560" width="50" height="30" as="geometry" />
        </mxCell>
        <mxCell id="yjUT5shLF-KUIMgDuQY2-52" value="high" style="text;html=1;align=center;verticalAlign=middle;resizable=0;points=[];autosize=1;strokeColor=none;fillColor=none;" parent="1" vertex="1">
          <mxGeometry x="160" y="560" width="50" height="30" as="geometry" />
        </mxCell>
        <mxCell id="yjUT5shLF-KUIMgDuQY2-53" value="" style="endArrow=classic;html=1;rounded=0;entryX=0;entryY=0.21666666666666667;entryDx=0;entryDy=3;entryPerimeter=0;" parent="1" target="yjUT5shLF-KUIMgDuQY2-3" edge="1">
          <mxGeometry width="50" height="50" relative="1" as="geometry">
            <mxPoint x="698" y="414" as="sourcePoint" />
            <mxPoint x="150" y="313.9999999999999" as="targetPoint" />
            <Array as="points">
              <mxPoint x="700" y="260" />
              <mxPoint x="410" y="260" />
              <mxPoint x="150" y="260" />
            </Array>
          </mxGeometry>
        </mxCell>
        <mxCell id="yjUT5shLF-KUIMgDuQY2-54" value="clk" style="text;html=1;align=center;verticalAlign=middle;resizable=0;points=[];autosize=1;strokeColor=none;fillColor=none;" parent="1" vertex="1">
          <mxGeometry x="560" y="460" width="40" height="30" as="geometry" />
        </mxCell>
        <mxCell id="yjUT5shLF-KUIMgDuQY2-57" value="" style="shape=or;whiteSpace=wrap;html=1;" parent="1" vertex="1">
          <mxGeometry x="130" y="620" width="30" height="40" as="geometry" />
        </mxCell>
        <mxCell id="yjUT5shLF-KUIMgDuQY2-58" value="" style="endArrow=none;html=1;rounded=0;exitX=0;exitY=0.5;exitDx=0;exitDy=0;exitPerimeter=0;" parent="1" source="yjUT5shLF-KUIMgDuQY2-57" edge="1">
          <mxGeometry width="50" height="50" relative="1" as="geometry">
            <mxPoint x="110" y="560" as="sourcePoint" />
            <mxPoint x="110" y="640" as="targetPoint" />
          </mxGeometry>
        </mxCell>
        <mxCell id="yjUT5shLF-KUIMgDuQY2-59" value="" style="endArrow=none;html=1;rounded=0;exitX=0;exitY=0.5;exitDx=0;exitDy=0;exitPerimeter=0;" parent="1" edge="1">
          <mxGeometry width="50" height="50" relative="1" as="geometry">
            <mxPoint x="180" y="639.89" as="sourcePoint" />
            <mxPoint x="160" y="639.89" as="targetPoint" />
          </mxGeometry>
        </mxCell>
        <mxCell id="yjUT5shLF-KUIMgDuQY2-61" value="" style="endArrow=none;html=1;rounded=0;exitX=0;exitY=0.5;exitDx=0;exitDy=0;exitPerimeter=0;" parent="1" edge="1">
          <mxGeometry width="50" height="50" relative="1" as="geometry">
            <mxPoint x="325" y="640" as="sourcePoint" />
            <mxPoint x="305" y="640" as="targetPoint" />
          </mxGeometry>
        </mxCell>
        <mxCell id="yjUT5shLF-KUIMgDuQY2-62" value="" style="endArrow=none;html=1;rounded=0;exitX=0;exitY=0.5;exitDx=0;exitDy=0;exitPerimeter=0;" parent="1" source="yjUT5shLF-KUIMgDuQY2-64" edge="1">
          <mxGeometry width="50" height="50" relative="1" as="geometry">
            <mxPoint x="375" y="639.89" as="sourcePoint" />
            <mxPoint x="355" y="639.89" as="targetPoint" />
          </mxGeometry>
        </mxCell>
        <mxCell id="yjUT5shLF-KUIMgDuQY2-63" value="high" style="text;html=1;align=center;verticalAlign=middle;resizable=0;points=[];autosize=1;strokeColor=none;fillColor=none;" parent="1" vertex="1">
          <mxGeometry x="175" y="625" width="50" height="30" as="geometry" />
        </mxCell>
        <mxCell id="yjUT5shLF-KUIMgDuQY2-65" value="" style="endArrow=none;html=1;rounded=0;exitX=0;exitY=0.5;exitDx=0;exitDy=0;exitPerimeter=0;" parent="1" target="yjUT5shLF-KUIMgDuQY2-64" edge="1">
          <mxGeometry width="50" height="50" relative="1" as="geometry">
            <mxPoint x="375" y="639.89" as="sourcePoint" />
            <mxPoint x="355" y="639.89" as="targetPoint" />
          </mxGeometry>
        </mxCell>
        <mxCell id="yjUT5shLF-KUIMgDuQY2-64" value="" style="ellipse;whiteSpace=wrap;html=1;aspect=fixed;" parent="1" vertex="1">
          <mxGeometry x="345" y="635" width="10" height="10" as="geometry" />
        </mxCell>
        <mxCell id="yjUT5shLF-KUIMgDuQY2-66" value="low" style="text;html=1;align=center;verticalAlign=middle;resizable=0;points=[];autosize=1;strokeColor=none;fillColor=none;" parent="1" vertex="1">
          <mxGeometry x="375" y="620" width="40" height="30" as="geometry" />
        </mxCell>
        <mxCell id="yjUT5shLF-KUIMgDuQY2-67" value="counter" style="text;html=1;align=center;verticalAlign=middle;resizable=0;points=[];autosize=1;strokeColor=none;fillColor=none;" parent="1" vertex="1">
          <mxGeometry x="55" y="625.5" width="60" height="30" as="geometry" />
        </mxCell>
        <mxCell id="yjUT5shLF-KUIMgDuQY2-68" value="counter" style="text;html=1;align=center;verticalAlign=middle;resizable=0;points=[];autosize=1;strokeColor=none;fillColor=none;" parent="1" vertex="1">
          <mxGeometry x="255" y="625" width="60" height="30" as="geometry" />
        </mxCell>
        <mxCell id="C1a_H2hcHMYkEIi0JTJB-1" value="" style="shape=xor;whiteSpace=wrap;html=1;" parent="1" vertex="1">
          <mxGeometry x="319" y="620" width="25" height="41" as="geometry" />
        </mxCell>
        <mxCell id="Av6H_b5IpjaGuoief6s5-3" value="in" style="text;html=1;align=center;verticalAlign=middle;resizable=0;points=[];autosize=1;strokeColor=none;fillColor=none;" parent="1" vertex="1">
          <mxGeometry x="448" y="467" width="27" height="26" as="geometry" />
        </mxCell>
      </root>
    </mxGraphModel>
  </diagram>
</mxfile>
